<?xml version="1.0" encoding="UTF-8" standalone="no"?>
<!-- Created with Inkscape (http://www.inkscape.org/) -->

<svg
   version="1.1"
   id="svg1"
   width="512"
   height="512"
   viewBox="0 0 512 512"
   xmlns="http://www.w3.org/2000/svg"
   xmlns:svg="http://www.w3.org/2000/svg">
  <defs
     id="defs1" />
  <g
     id="g1">
    <path
       style="fill:#000000"
       d="M 232.5,510.96467 C 189.55716,506.62704 150.82381,492.98144 115,469.56991 86.179453,450.73515 56.909526,420.64928 38.522143,390.96013 -12.73413,308.19928 -12.73413,203.80072 38.522143,121.03987 48.779906,104.47719 58.928578,91.937601 75.433089,75.433089 97.870707,52.995472 115.78448,39.999161 143,26.413788 201.11005,-2.5934375 271.15968,-7.8690207 333.48002,12.068341 373.07456,24.735325 405.9492,44.71538 435.84338,74.281212 476.67006,114.65946 501.13113,163.45213 509.64807,221.5 c 2.44197,16.64338 2.44197,52.35662 0,69 -8.51694,58.04787 -32.97801,106.84054 -73.80469,147.21879 -39.67593,39.24014 -87.178,63.07885 -142.27548,71.40034 -15.09535,2.27989 -47.17105,3.24925 -61.0679,1.84554 z m 45.07632,-30.02765 c 44.79667,-4.35914 87.99749,-22.47878 123.20131,-51.67408 C 451.61966,387.09851 482,322.2914 482,256 482,207.10257 465.87465,159.48814 435.60287,119 426.46282,106.7753 405.20152,85.525356 392.83136,76.251338 323.35903,24.167314 233.1942,15.470998 156.5,53.457394 131.81665,65.682981 114.91447,77.870643 95.5,97.442695 35.508289,157.92134 14.898008,245.54847 41.547939,326.82648 52.438739,360.04167 70.630685,389.52743 96,415.08314 c 25.18098,25.366 55.9113,44.42255 89.38591,55.43017 29.64709,9.749 61.7836,13.38258 92.19041,10.42371 z M 233,450.55464 C 196.97465,445.84602 164.67403,432.65352 136.5,411.14127 128.01763,404.66457 110.87425,387.85478 103.72089,379 71.605164,339.24563 55.848417,286.84681 61.020344,237 64.89306,199.67494 79.181832,164.27149 102.38918,134.5 109.19929,125.76366 125.27837,109.75337 134.5,102.52654 185.35439,62.672876 251.41674,50.000895 312.22245,68.436087 c 30.31542,9.19109 55.63806,24.018842 78.50388,45.968213 18.59397,17.84873 30.72516,34.31802 41.37376,56.16898 22.36449,45.892 25.82901,97.86675 9.78891,146.85344 -14.93055,45.59815 -48.53037,86.22725 -90.69955,109.67447 -19.08174,10.60996 -40.78011,18.29224 -62.18945,22.01809 -15.04699,2.61862 -41.71687,3.3022 -56,1.43536 z m 51,-30.80882 6.5,-1.25612 0.62799,-13.49485 c 0.34539,-7.42217 1.35965,-16.56786 2.2539,-20.32376 7.6749,-32.23471 32.84205,-58.47191 66.15935,-68.97228 C 370.57015,312.22291 380.54699,311 397.87553,311 h 14.7308 l 2.11553,-6.75 c 7.16775,-22.87013 9.12115,-52.40187 5.01054,-75.75 l -1.2324,-7 -16,-0.59902 c -25.57921,-0.95765 -32.14273,-3.962 -61.23349,-28.02871 -7.82842,-6.47643 -16.99995,-13.65399 -20.38117,-15.95013 -8.75552,-5.94577 -21.4201,-11.63873 -32.67953,-14.69005 -9.13232,-2.47488 -11.03527,-2.63029 -32.20581,-2.63029 -21.12374,0 -23.08836,0.15953 -32.11888,2.60824 -18.58034,5.03821 -29.67764,11.41829 -51.88112,29.82758 -30.05961,24.92295 -36.26558,27.78535 -62.5,28.82706 l -16,0.63532 -1.351173,7 c -0.839581,4.3496 -1.383776,14.76188 -1.437282,27.5 -0.09126,21.72637 1.248469,31.65738 6.492335,48.1258 l 2.109785,6.6258 19.593165,0.50915 c 16.69504,0.43383 20.99837,0.88157 29.09317,3.02699 18.8984,5.00875 32.7896,13.11462 46.5,27.13396 9.27504,9.48404 15.09687,18.17971 19.80293,29.5783 4.57445,11.07983 5.88395,17.76358 6.43229,32.83065 0.36176,9.94037 0.89526,14.47406 1.74143,14.79876 0.67094,0.25747 5.67567,1.10725 11.12162,1.8884 11.54762,1.65636 40.09881,1.21905 50.40173,-0.77199 z M 206.24086,322.0054 c -4.23332,-2.58108 -7.23243,-7.58832 -7.23712,-12.08293 -0.003,-3.26148 37.99905,-105.26445 42.3207,-113.59363 2.63306,-5.07472 7.20604,-7.70606 14.13302,-8.13226 5.06887,-0.31188 6.5917,0.005 9.45059,1.96582 1.87443,1.28568 4.2255,3.4626 5.2246,4.8376 2.75878,3.79675 42.86758,110.83049 42.8658,114.39103 -0.004,7.8611 -6.88912,14.61174 -14.89633,14.60523 -8.634,-0.007 -11.71824,-3.30286 -17.54266,-18.74626 L 277.82515,298 H 256 234.17485 l -2.73431,7.25 c -4.2014,11.13998 -6.24043,14.65726 -9.73088,16.78549 -4.22857,2.5783 -11.21299,2.56471 -15.4688,-0.0301 z M 265.99038,267.25 c -0.005,-0.4125 -2.21763,-6.6 -4.91632,-13.75 -4.39679,-11.64901 -5.00835,-12.74019 -5.88474,-10.5 C 251.51643,252.38847 246,267.10169 246,267.50942 246,267.77924 250.5,268 256,268 c 5.5,0 9.99567,-0.3375 9.99038,-0.75 z m -75.22541,133.5 C 190.10859,390.2747 186.67284,380.28527 180.56792,371.10217 168.56038,353.04025 148.92563,342.42288 125.38737,341.26362 119.12432,340.95516 114,341.01935 114,341.40626 c 0,1.02298 7.6733,12.27463 12.33941,18.09374 9.95076,12.40962 24.0919,25.37741 37.66059,34.53574 5.42961,3.66477 25.59771,14.8718 26.89096,14.9428 0.21502,0.0118 0.15833,-3.69104 -0.12599,-8.22854 z M 346,395.2401 c 18.99305,-12.33591 35.3898,-28.42426 47.83494,-46.93523 2.29078,-3.40732 4.16506,-6.50855 4.16506,-6.89161 0,-1.22104 -21.267,0.41558 -27.5,2.11628 -27.5152,7.50763 -47.26145,30.50626 -49.20496,57.30946 l -0.60467,8.339 8.40482,-4.20859 C 333.71783,402.65469 341.325,398.2765 346,395.2401 Z M 125.02416,188.67969 c 7.1184,-2.92878 11.55568,-6.05837 27.78073,-19.59362 21.65012,-18.06095 36.12313,-26.78315 54.69511,-32.96215 16.46482,-5.47793 24.76022,-6.60819 48.5,-6.60819 23.55876,0 31.40011,1.05747 48.53005,6.54468 18.87299,6.04556 33.18362,14.8328 58.46995,35.90265 18.64848,15.53886 24.05205,18.31557 36.72099,18.86967 l 9.42448,0.41219 -4.19233,-8.37246 C 381.44153,135.91757 338.43215,103.14649 286.7554,92.811457 270.58439,89.577354 241.4602,89.568041 225.34723,92.791821 174.02331,103.06038 130.63151,135.94241 107.42242,182.15447 L 102.97993,191 l 8.26003,-0.0237 c 6.26342,-0.018 9.59534,-0.57312 13.7842,-2.29657 z"
       id="path1" />
  </g>
</svg>
