<?xml version="1.0" encoding="UTF-8" standalone="no"?>
<svg
   height="24"
   viewBox="0 -960 960 960"
   width="24"
   version="1.1"
   id="svg1"
   sodipodi:docname="rotate_right.svg"
   inkscape:version="1.3 (0e150ed6c4, 2023-07-21)"
   xmlns:inkscape="http://www.inkscape.org/namespaces/inkscape"
   xmlns:sodipodi="http://sodipodi.sourceforge.net/DTD/sodipodi-0.dtd"
   xmlns="http://www.w3.org/2000/svg"
   xmlns:svg="http://www.w3.org/2000/svg">
  <defs
     id="defs1" />
  <sodipodi:namedview
     id="namedview1"
     pagecolor="#ffffff"
     bordercolor="#000000"
     borderopacity="0.25"
     inkscape:showpageshadow="2"
     inkscape:pageopacity="0.0"
     inkscape:pagecheckerboard="0"
     inkscape:deskcolor="#d1d1d1"
     inkscape:zoom="33.541667"
     inkscape:cx="12"
     inkscape:cy="12"
     inkscape:window-width="1920"
     inkscape:window-height="1011"
     inkscape:window-x="0"
     inkscape:window-y="0"
     inkscape:window-maximized="1"
     inkscape:current-layer="svg1" />
  <path
     d="M522-80v-82q34-5 66.5-18t61.5-34l56 58q-42 32-88 51.5T522-80Zm-80 0Q304-98 213-199.5T122-438q0-75 28.5-140.5t77-114q48.5-48.5 114-77T482-798h6l-62-62 56-58 160 160-160 160-56-56 64-64h-8q-117 0-198.5 81.5T202-438q0 104 68 182.5T442-162v82Zm322-134-58-56q21-29 34-61.5t18-66.5h82q-5 50-24.5 96T764-214Zm76-264h-82q-5-34-18-66.5T706-606l58-56q32 39 51 86t25 98Z"
     id="path1"
     style="fill:#eef1f4;fill-opacity:1" />
</svg>
