<?xml version="1.0" encoding="UTF-8" standalone="no"?>
<svg
   height="24"
   viewBox="0 -960 960 960"
   width="24"
   version="1.1"
   id="svg1"
   sodipodi:docname="rotate_left.svg"
   inkscape:version="1.3 (0e150ed6c4, 2023-07-21)"
   xmlns:inkscape="http://www.inkscape.org/namespaces/inkscape"
   xmlns:sodipodi="http://sodipodi.sourceforge.net/DTD/sodipodi-0.dtd"
   xmlns="http://www.w3.org/2000/svg"
   xmlns:svg="http://www.w3.org/2000/svg">
  <defs
     id="defs1" />
  <sodipodi:namedview
     id="namedview1"
     pagecolor="#ffffff"
     bordercolor="#000000"
     borderopacity="0.25"
     inkscape:showpageshadow="2"
     inkscape:pageopacity="0.0"
     inkscape:pagecheckerboard="0"
     inkscape:deskcolor="#d1d1d1"
     inkscape:zoom="22.627417"
     inkscape:cx="12.042912"
     inkscape:cy="11.38"
     inkscape:window-width="1920"
     inkscape:window-height="1011"
     inkscape:window-x="0"
     inkscape:window-y="0"
     inkscape:window-maximized="1"
     inkscape:current-layer="svg1"
     showgrid="false" />
  <path
     d="m 440,-80 q -50,-5 -96,-24.5 -46,-19.5 -88,-51.5 l 56,-58 q 29,21 61.5,34 32.5,13 66.5,18 z m 80,0 v -82 q 104,-15 172,-93.5 68,-78.5 68,-182.5 0,-117 -81.5,-198.5 Q 597,-718 480,-718 h -8 l 64,64 -56,56 -160,-160 160,-160 56,58 -62,62 h 6 q 75,0 140.5,28.5 65.5,28.5 114,77 48.5,48.5 77,114 28.5,65.5 28.5,140.5 0,137 -91,238.5 Q 658,-98 520,-80 Z M 198,-214 q -32,-42 -51.5,-88 -19.5,-46 -24.5,-96 h 82 q 5,34 18,66.5 13,32.5 34,61.5 z m -76,-264 q 6,-51 25,-98 19,-47 51,-86 l 58,56 q -21,29 -34,61.5 -13,32.5 -18,66.5 z"
     id="path1"
     style="fill:#eef1f4;fill-opacity:1" />
</svg>
