<?xml version="1.0" encoding="UTF-8" standalone="no"?>
<!-- Uploaded to: SVG Repo, www.svgrepo.com, Generator: SVG Repo Mixer Tools -->

<svg
   fill="#000000"
   width="465.95499"
   height="679.78003"
   viewBox="0 0 298.21119 435.05922"
   data-name="Layer 1"
   id="Layer_1"
   version="1.1"
   sodipodi:docname="stop.svg"
   inkscape:version="1.3 (0e150ed6c4, 2023-07-21)"
   xmlns:inkscape="http://www.inkscape.org/namespaces/inkscape"
   xmlns:sodipodi="http://sodipodi.sourceforge.net/DTD/sodipodi-0.dtd"
   xmlns="http://www.w3.org/2000/svg"
   xmlns:svg="http://www.w3.org/2000/svg">
  <defs
     id="defs1" />
  <sodipodi:namedview
     id="namedview1"
     pagecolor="#ffffff"
     bordercolor="#000000"
     borderopacity="0.25"
     inkscape:showpageshadow="2"
     inkscape:pageopacity="0.0"
     inkscape:pagecheckerboard="0"
     inkscape:deskcolor="#d1d1d1"
     showgrid="false"
     inkscape:zoom="1.07125"
     inkscape:cx="303.3839"
     inkscape:cy="356.12602"
     inkscape:window-width="1920"
     inkscape:window-height="1011"
     inkscape:window-x="0"
     inkscape:window-y="0"
     inkscape:window-maximized="1"
     inkscape:current-layer="Layer_1" />
  <title
     id="title1" />
  <g
     id="g6"
     transform="translate(0,5.2357041)">
    <g
       id="g5"
       transform="matrix(0.66075793,0,0,0.66075793,61.155064,141.03495)">
      <g
         id="g4"
         transform="translate(-31.76,-85.809996)"
         style="fill:#eef1f4;fill-opacity:1">
        <path
           d="M 281.35067,149.98842 H 265.88184 V 90.558681 c -0.004,-6.327671 -9.50126,-6.327671 -9.49736,0 v 59.429739 h -15.46883 c -9.17919,0 -16.62038,7.4412 -16.62038,16.62039 v 104.62531 c 0,9.17918 7.4412,16.62038 16.62038,16.62038 h 40.43502 c 9.17918,0 16.62038,-7.4412 16.62038,-16.62038 V 166.60881 c 0,-9.17919 -7.44119,-16.62039 -16.62038,-16.62039 z m 7.12302,121.2457 c 0,3.93393 -3.18909,7.12302 -7.12302,7.12302 h -40.43502 c -3.93393,0 -7.12302,-3.18909 -7.12302,-7.12302 V 166.60881 c 0,-3.93394 3.18908,-7.12303 7.12302,-7.12303 h 19.41617 c 0.53128,0.10284 1.07734,0.10284 1.60862,0 h 19.41023 c 3.93394,0 7.12302,3.18909 7.12302,7.12303 z m -6.6066,-84.25941 c 0,2.62262 -2.12606,4.74868 -4.74868,4.74868 h -31.96456 c -6.32767,-0.004 -6.32767,-9.50126 0,-9.49736 h 31.96456 c 2.62262,0 4.74868,2.12606 4.74868,4.74868 z m 0,63.90537 c 0,2.62262 -2.12606,4.74868 -4.74868,4.74868 h -31.96456 c -6.32767,-0.004 -6.32767,-9.50126 0,-9.49736 h 31.96456 c 2.62262,0 4.74868,2.12606 4.74868,4.74868 z m 0,-31.95268 c 0,2.62262 -2.12606,4.74868 -4.74868,4.74868 h -31.96456 c -6.32767,-0.004 -6.32767,-9.50126 0,-9.49736 h 31.96456 c 2.62262,0 4.74868,2.12606 4.74868,4.74868 z m -99.9538,-68.79058 H 169.61421 V 90.558681 c 0,-6.331577 -9.49737,-6.331577 -9.49737,0 v 59.578139 h -12.29908 c -10.92436,0.0131 -19.77705,8.86577 -19.79013,19.79013 v 0.22556 l 4.37422,36.28734 c 26.31451,-49.88397 47.97001,-53.19665 66.83836,-40.46966 l 2.42759,4.41382 v -0.45706 c -0.013,-10.91049 -8.84406,-19.75745 -19.75451,-19.79013 z m -44.22785,18.4616 c 0.11621,-5.60286 4.52826,-8.96493 10.13232,-8.97018 h 34.09553 c 5.60406,0.005 9.31206,-1.41335 11.34642,5.72785 -20.4752,-30.79349 -57.46806,36.19728 -55.57427,3.24233 z M 85.645657,150.13682 H 73.346573 V 90.558681 c 0,-6.331572 -9.497362,-6.331572 -9.497362,0 V 150.13682 H 51.550128 C 40.625765,150.1499 31.773082,159.00259 31.76,169.92695 v 0.22556 l 6.357297,66.07789 c 0.106845,10.77357 7.609761,19.49927 16.81033,19.49927 h 27.34053 c 9.200569,0 16.697549,-8.7257 16.810331,-19.49927 l 6.333552,-65.84639 v -0.45706 c -0.0131,-10.91511 -8.851294,-19.76398 -19.766383,-19.79013 z m 3.953276,85.39909 v 0.45112 c 0,5.55596 -3.34782,10.24528 -7.312968,10.24528 H 54.927627 c -3.965149,0 -7.312969,-4.68932 -7.312969,-10.24528 v -0.22556 l -6.357296,-66.04228 c 0.116209,-5.60286 4.688705,-10.0857 10.292766,-10.09095 h 34.095529 c 5.603044,0.005 10.173804,4.48904 10.28683,10.09095 z m -0.273049,-48.67398 c 0,2.62262 -2.126057,4.74868 -4.748681,4.74868 H 52.612645 c -6.335468,0.004 -6.335468,-9.49346 0,-9.49736 h 31.964558 c 2.611077,-5e-5 4.732361,2.10797 4.748681,4.719 z m -3.407178,31.92894 c 0,2.62262 -2.126057,4.74868 -4.748681,4.74868 H 56.049503 c -6.327671,-0.004 -6.327671,-9.50126 0,-9.49736 h 25.120522 c 2.622624,0 4.748681,2.12606 4.748681,4.74868 z"
           id="path1"
           style="fill:#eef1f4;fill-opacity:1;stroke-width:0.593585"
           sodipodi:nodetypes="sccccsssssssssssscsccscsssccssssccssssccssccssccccccccccccccccsscccccsscccccssssccccccssccccsssccss" />
      </g>
      <g
         id="g2"
         transform="matrix(0.84499173,0,0,0.84499173,-454.59191,-73.326228)"
         style="display:inline;fill:#eef1f4;fill-opacity:1">
        <path
           d="m 749.3373,187.58099 c -16.76143,-24.52495 -46.85743,-29.01495 -70.04736,-10.45031 -20.32147,16.28733 -34.96318,47.7238 -37.30317,80.08489 -0.37482,5.24623 -0.81531,10.65919 -1.28088,16.15062 -2.01851,24.10214 -4.71053,49.98058 -7.02885,72.17522 -1.58362,15.26235 -2.99303,28.81026 -3.88469,38.8877 -0.27179,3.005 -0.63633,6.36259 -1.0373,9.96012 -3.24991,29.43852 -8.52657,77.56683 27.17016,88.16715 l 4.11705,-27.59616 c -10.98071,-6.68226 -16.57987,-25.55828 -13.23067,-48.00764 3.48806,-23.38008 15.09833,-40.32784 28.1875,-42.49444 l 2.89794,-14.04661 -8.85729,-1.32141 c -3.6706,-0.54761 -6.20538,-3.97132 -5.65776,-7.64192 0.54761,-3.67058 3.97133,-6.20536 7.64192,-5.65775 l 9.60226,1.43256 2.72905,-13.1879 -10.33353,-1.54165 c -3.67059,-0.54762 -6.20536,-3.97133 -5.65775,-7.64192 0.54762,-3.6706 3.97132,-6.20536 7.64192,-5.65775 l 11.07849,1.65279 2.78974,-13.50514 c 1.89724,0.40542 3.89631,0.94837 5.7048,1.21817 l 2.57251,0.34295 c 1.56392,0.17912 3.28634,0.29975 5.03484,0.42486 l -2.7918,13.51884 8.8573,1.32142 c 3.6706,0.54761 6.20537,3.97132 5.65775,7.64191 -0.54761,3.6706 -3.97132,6.20538 -7.64192,5.65776 l -9.60226,-1.43255 -2.72904,13.18789 10.33352,1.54165 c 3.67059,0.54761 6.20537,3.97133 5.65776,7.64192 -0.54762,3.67059 -3.97134,6.20536 -7.64192,5.65775 l -11.07849,-1.65279 -3.18011,15.39123 c 10.12071,7.34226 15.19759,25.52859 11.97934,47.10018 -3.35115,22.46245 -14.21606,38.88221 -26.66709,42.05533 l -4.19443,28.11482 c 26.94409,4.01976 47.5838,-27.06611 61.35513,-92.40306 2.73723,-12.96938 7.81931,-30.90446 13.19497,-49.89758 4.62546,-16.33098 9.62607,-33.99336 14.03035,-51.48596 l 0.004,-0.0268 c 1.36885,-5.43761 2.67823,-10.84393 3.89777,-16.19483 7.23637,-31.64463 2.40602,-65.97274 -12.28975,-87.48362 z m -0.78979,84.48525 c -0.86974,3.82646 -1.78597,7.68677 -2.74547,11.56803 -1.01425,0.14757 -2.00437,0.31276 -3.08534,0.45037 -1.80207,0.23396 -3.64476,0.46251 -5.59334,0.67461 -1.91981,0.20301 -3.8782,0.38689 -5.87381,0.55119 -1.96943,0.16821 -3.95918,0.29324 -5.96255,0.4156 -2.11141,0.12026 -4.20766,0.22876 -6.31168,0.29532 -1.93991,0.0643 -3.81883,0.0828 -5.68465,0.10338 -2.06736,0.004 -4.07907,0.003 -6.01279,-0.0679 -3.0459,-0.0874 -6.04595,-0.20863 -8.57141,-0.50383 l -2.14334,-0.30647 c -1.5691,-0.23409 -3.30856,-0.69753 -4.98349,-1.04236 l 0.004,-0.0268 c -3.01752,-0.64073 -6.17153,-1.46433 -9.42071,-2.4659 -0.013,-0.002 -0.04,-0.006 -0.0511,-0.021 -2.94966,-0.9161 -6.02148,-2.01294 -9.11925,-3.20923 -0.86109,-0.3324 -1.71879,-0.69169 -2.59101,-1.03913 -2.35757,-0.96351 -4.7588,-2.00173 -7.17635,-3.10991 -1.65327,-0.76349 -3.32349,-1.59706 -5.00742,-2.43267 -1.24001,-0.62025 -2.47745,-1.2535 -3.72469,-1.91499 0.32708,-4.0164 0.63113,-7.96804 0.90812,-11.82814 2.04113,-28.35449 15.02658,-56.70702 32.30333,-70.53942 17.44695,-13.96951 37.92759,-10.91402 50.53735,7.53962 12.48505,18.28593 16.61768,49.1789 10.30554,76.9096 z"
           id="path1-5"
           style="fill:#eef1f4;fill-opacity:1;stroke-width:0.630299" />
      </g>
    </g>
    <text
       xml:space="preserve"
       style="font-style:normal;font-variant:normal;font-weight:normal;font-stretch:normal;font-size:61.44px;font-family:sans-serif;-inkscape-font-specification:'sans-serif, @wght=700';font-variant-ligatures:normal;font-variant-caps:normal;font-variant-numeric:normal;font-variant-east-asian:normal;font-variation-settings:'wght' 700;text-align:center;text-anchor:middle;fill:#eef1f4;fill-opacity:1;stroke-width:0.48378;stroke-dasharray:1.45134, 1.45134"
       x="146.34079"
       y="105.03029"
       id="text4"><tspan
         sodipodi:role="line"
         id="tspan4"
         style="font-style:normal;font-variant:normal;font-weight:normal;font-stretch:normal;font-size:61.44px;font-family:sans-serif;-inkscape-font-specification:'sans-serif, @wght=700';font-variant-ligatures:normal;font-variant-caps:normal;font-variant-numeric:normal;font-variant-east-asian:normal;font-variation-settings:'wght' 700;stroke-width:0.48378"
         x="146.34079"
         y="105.03029">FRENAR</tspan></text>
  </g>
</svg>
