<?xml version="1.0" encoding="UTF-8" standalone="no"?>
<svg
   height="24"
   viewBox="0 -960 960 960"
   width="24"
   version="1.1"
   id="svg1"
   sodipodi:docname="touch.svg"
   inkscape:version="1.3 (0e150ed6c4, 2023-07-21)"
   xmlns:inkscape="http://www.inkscape.org/namespaces/inkscape"
   xmlns:sodipodi="http://sodipodi.sourceforge.net/DTD/sodipodi-0.dtd"
   xmlns="http://www.w3.org/2000/svg"
   xmlns:svg="http://www.w3.org/2000/svg">
  <defs
     id="defs1" />
  <sodipodi:namedview
     id="namedview1"
     pagecolor="#ffffff"
     bordercolor="#000000"
     borderopacity="0.25"
     inkscape:showpageshadow="2"
     inkscape:pageopacity="0.0"
     inkscape:pagecheckerboard="0"
     inkscape:deskcolor="#d1d1d1"
     inkscape:zoom="33.541667"
     inkscape:cx="11.985093"
     inkscape:cy="12"
     inkscape:window-width="1920"
     inkscape:window-height="1011"
     inkscape:window-x="0"
     inkscape:window-y="0"
     inkscape:window-maximized="1"
     inkscape:current-layer="svg1" />
  <path
     d="M80-80v-60h81q-59-72-90-159T40-480q0-94 31-181t90-159H80v-60h200v200h-60v-116q-58 66-89 147t-31 169q0 88 31 169t89 147v-116h60v200H80Zm578-47q-23 8-46.5 7.5T566-131L304-253l18-40q10-20 28-32.5t40-14.5l68-5-112-307q-6-16 1-30.5t23-20.5q16-6 30.5 1t20.5 23l148 407-100 7 131 61q7 3 15 3.5t15-1.5l157-57q31-11 45-41.5t3-61.5l-55-150q-6-16 1-30.5t23-20.5q16-6 30.5 1t20.5 23l55 150q23 63-4.5 122.5T815-184l-157 57Zm-90-265-54-151q-6-16 1-30.5t23-20.5q16-6 30.5 1t20.5 23l55 150-76 28Zm113-41-41-113q-6-16 1-30.5t23-20.5q16-6 30.5 1t20.5 23l41 112-75 28Zm8 88Z"
     id="path1"
     style="fill:#eef1f4;fill-opacity:0.3019608" />
</svg>
